<?xml version="1.0"?>
<svg xmlns="http://www.w3.org/2000/svg" height="512px" viewBox="0 0 512 512" width="512px"><path d="m329.238281 30c-6.214843-17.421875-22.707031-30-42.238281-30h-15v90h15c19.53125 0 36.023438-12.578125 42.238281-30h182.761719v-30zm0 0" fill="#0033ff"/><path d="m279.871094 163.222656c-9.011719-7.925781-9.050782-21.984375 0-29.941406l-19.742188-22.558594c-22.691406 19.832032-22.691406 55.222656 0 75.058594 7.230469 6.359375 9.46875 16.785156 2.769532 26.21875h-42.355469c4.367187-18.878906-2.402344-37.179688-15.671875-48.777344-9.011719-7.925781-9.050782-21.984375 0-29.941406l-19.742188-22.558594c-22.691406 19.832032-22.691406 55.226563 0 75.058594 7.230469 6.359375 9.46875 16.785156 2.769532 26.222656h-42.355469c.847656-3.664062 1.351562-7.421875 1.351562-11.25 0-14.386718-6.195312-28.066406-17.023437-37.53125-9.011719-7.925781-9.050782-21.984375 0-29.941406l-18.742188-23.558594c-22.691406 19.832032-23.691406 56.226563-1 76.058594 4.363282 3.839844 6.765625 9.140625 6.765625 14.972656 0 4.21875-1.644531 7.9375-3.996093 11.25h-112.898438v30h30.761719c5.25 57.90625 40.859375 106.683594 90.417969 131.757813l-27.8125 108.238281h-33.367188v30h56.632812l15.417969-60h125.898438l15.417969 60h56.632812v-30h-33.367188l-27.8125-108.242188c49.558594-25.070312 85.171876-73.851562 90.417969-131.757812h30.761719v-30h-94.457031c4.367187-18.878906-2.402344-37.179688-15.671875-48.777344zm-29.632813 258.777344h-110.476562l9.558593-37.183594c14.589844 4.242188 29.730469 7.183594 45.679688 7.183594s31.089844-2.941406 45.679688-7.183594zm0 0" fill="#0033ff"/><path d="m212 0h30v90h-30zm0 0" fill="#0033ff"/><path d="m152 0h30v90h-30zm0 0" fill="#0033ff"/><path d="m107 90h15v-90h-15c-24.8125 0-45 20.1875-45 45s20.1875 45 45 45zm0 0" fill="#0033ff"/></svg>
